<svg width="16" height="16" viewBox="0 0 16 16" fill="none" xmlns="http://www.w3.org/2000/svg">
<path d="M14.6654 7.99992H13.012C12.7207 7.9993 12.4371 8.09412 12.2048 8.2699C11.9724 8.44567 11.804 8.69272 11.7254 8.97325L10.1587 14.5466C10.1486 14.5812 10.1275 14.6116 10.0987 14.6333C10.0698 14.6549 10.0348 14.6666 9.9987 14.6666C9.96264 14.6666 9.92755 14.6549 9.8987 14.6333C9.86985 14.6116 9.8488 14.5812 9.8387 14.5466L6.1587 1.45325C6.1486 1.41863 6.12755 1.38822 6.0987 1.36659C6.06985 1.34495 6.03476 1.33325 5.9987 1.33325C5.96264 1.33325 5.92755 1.34495 5.8987 1.36659C5.86985 1.38822 5.8488 1.41863 5.8387 1.45325L4.27203 7.02659C4.19367 7.30602 4.02629 7.55226 3.79527 7.72793C3.56426 7.90359 3.28224 7.99909 2.99203 7.99992H1.33203" stroke="#7DC4F0" stroke-width="1.33333" stroke-linecap="round" stroke-linejoin="round"/>
</svg>
