<svg width="64" height="80" viewBox="0 0 64 80" fill="none" xmlns="http://www.w3.org/2000/svg">
<g filter="url(#filter0_d_414_3050)">
<g clip-path="url(#clip0_414_3050)">
<path d="M32 4C18.8 4 8 14.8 8 28C8 46 32 68 32 68C32 68 56 46 56 28C56 14.8 45.2 4 32 4ZM32 36C27.6 36 24 32.4 24 28C24 23.6 27.6 20 32 20C36.4 20 40 23.6 40 28C40 32.4 36.4 36 32 36Z" fill="#7DC4F0"/>
<path d="M32 34C35.3137 34 38 31.3137 38 28C38 24.6863 35.3137 22 32 22C28.6863 22 26 24.6863 26 28C26 31.3137 28.6863 34 32 34Z" fill="white"/>
</g>
</g>
<defs>
<filter id="filter0_d_414_3050" x="0" y="0" width="64" height="80" filterUnits="userSpaceOnUse" color-interpolation-filters="sRGB">
<feFlood flood-opacity="0" result="BackgroundImageFix"/>
<feColorMatrix in="SourceAlpha" type="matrix" values="0 0 0 0 0 0 0 0 0 0 0 0 0 0 0 0 0 0 127 0" result="hardAlpha"/>
<feOffset dy="4"/>
<feGaussianBlur stdDeviation="4"/>
<feColorMatrix type="matrix" values="0 0 0 0 0 0 0 0 0 0 0 0 0 0 0 0 0 0 0.15 0"/>
<feBlend mode="normal" in2="BackgroundImageFix" result="effect1_dropShadow_414_3050"/>
<feBlend mode="normal" in="SourceGraphic" in2="effect1_dropShadow_414_3050" result="shape"/>
</filter>
<clipPath id="clip0_414_3050">
<rect width="48" height="64" fill="white" transform="translate(8 4)"/>
</clipPath>
</defs>
</svg>
