<svg width="16" height="16" viewBox="0 0 16 16" fill="none" xmlns="http://www.w3.org/2000/svg">
  <g transform="translate(2, 3.53)">
    <path d="M3.33333 8C4.8 8 6 6.78 6 5.3C6 4.52667 5.62 3.79333 4.86 3.17333C4.1 2.55333 3.52667 1.63333 3.33333 0.666667C3.14 1.63333 2.57333 2.56 1.80667 3.17333C1.04 3.78667 0.666667 4.53333 0.666667 5.3C0.666667 6.78 1.86667 8 3.33333 8Z" stroke="#FF9800" stroke-width="1.33333" stroke-linecap="round" stroke-linejoin="round"/>
  </g>
  <g transform="translate(6.06, 2.01)">
    <path d="M2.98 3.05333C3.43851 2.32075 3.76353 1.5127 3.94 0.666667C4.27333 2.33333 5.27333 3.93333 6.60667 5C7.94 6.06667 8.60667 7.33333 8.60667 8.66667C8.61048 9.58819 8.34058 10.4901 7.8312 11.2581C7.32181 12.026 6.59588 12.6254 5.74542 12.9803C4.89496 13.3352 3.95828 13.4296 3.05412 13.2515C2.14995 13.0734 1.31902 12.6309 0.666667 11.98" stroke="#FF9800" stroke-width="1.33333" stroke-linecap="round" stroke-linejoin="round"/>
  </g>
</svg>
